<svg xmlns="http://www.w3.org/2000/svg" version="1" width="50" height="50" viewBox="0 0 50 50"><path d="M25.004 49.057c-5.756 0-8.862-12.199-8.862-23.676s3.105-23.675 8.862-23.675c5.755 0 8.861 12.198 8.861 23.675s-3.105 23.676-8.861 23.676zm0-45.351c-3.246 0-6.862 8.901-6.862 21.675 0 12.774 3.616 21.676 6.862 21.676 3.244 0 6.861-8.902 6.861-21.676S28.248 3.706 25.004 3.706z"/><path d="M39.83 39.607c-4.951 0-12.15-2.449-19.257-6.553C10.634 27.316 1.623 18.527 4.5 13.543c.629-1.09 2.125-2.389 5.676-2.389 4.952 0 12.151 2.45 19.257 6.553 5.34 3.083 9.953 6.713 12.99 10.223 3.314 3.828 4.381 7.041 3.082 9.289-.628 1.09-2.123 2.388-5.675 2.388zM10.176 13.154c-2.026 0-3.427.493-3.944 1.389-1.623 2.811 4.278 10.393 15.341 16.779 6.714 3.877 13.71 6.285 18.257 6.285 2.026 0 3.428-.493 3.943-1.389.798-1.381-.271-3.99-2.861-6.98-2.896-3.345-7.328-6.825-12.479-9.799-6.713-3.876-13.709-6.285-18.257-6.285z"/><path d="M10.177 39.607c-3.552 0-5.047-1.299-5.677-2.389-1.298-2.248-.232-5.461 3.083-9.289 3.038-3.51 7.651-7.14 12.99-10.223 7.106-4.103 14.306-6.553 19.257-6.553 3.552 0 5.047 1.299 5.676 2.389 1.299 2.248.232 5.46-3.082 9.289-3.037 3.51-7.65 7.14-12.99 10.223-7.107 4.104-14.306 6.553-19.257 6.553zM39.83 13.154c-4.547 0-11.543 2.408-18.257 6.285-5.151 2.974-9.583 6.454-12.479 9.799-2.589 2.991-3.659 5.6-2.862 6.98.517.896 1.918 1.389 3.944 1.389 4.547 0 11.543-2.408 18.257-6.285 5.151-2.975 9.583-6.454 12.479-9.799 2.59-2.991 3.659-5.6 2.862-6.98-.516-.896-1.917-1.389-3.944-1.389z"/><circle cx="24.938" cy="25.271" r="4.996"/></svg>