<svg xmlns="http://www.w3.org/2000/svg" width="100" height="100" viewBox="0 0 100 100"><path d="M97.035 51.533c-2.617-.202-3.956-2.629-5.297-4.547-1.491-1.908-3.537-3.361-6.032-3.466-6.109-.256-7.966 6.15-6.693 11.002 1.487 5.525 6.409 9.185 8.02 14.482 1.464 4.818-2.184 8.835-7.051 8.835 1.628-1.222 1.352-3.841.273-5.315-.357-.488-1.169-1.249-1.866-1.009-.943.325.547 2.205.674 2.644.757 2.699-2.923 3.103-4.64 2.384-2.059-.861-4-1.784-6.127-2.491.961-1.438 1.371-3.378 1.096-5.087-.086-.688-1.076-3.973-2.351-3.207-.59.335-1.186 3.306-1.599 4.062-.744 1.36-1.718 2.536-3.03 3.382-.859.666-2.811.712-3.171-.579-.293-.959 1.982-1.925 2.544-2.307 1.944-1.317 3.617-3.651 5.146-5.456 5.093-5.759 9.188-12.93 10.84-20.481.592-2.711.028-6.124 2.878-7.344 3.48-1.697 6.678-4.074 5.589-8.384-.828-3.27-2.124-6.468-3.095-9.706-.804-2.675-1.272-7.047-3.444-9.044-2.629-2.418-5.607.584-7.214 2.561-2.591 3.188-6.273 4.284-9.969 5.687-3.761 1.428-5.984 3.425-7.9 6.949-1.34 2.909-4.287 4.826-6.515 6.993-4.406 4.258-13.314 10.266-13.847 17.028-.17 1.478.144 2.994-.459 4.406-.529 1.251-1.644 2.054-2.276 3.235-.599 1.12-1.16 2.85-1.16 4.146-.015 1.192.498 2.402.187 3.578-1.923-1.434.065-2.636-.386-4.146-1.263-1.681-5.052 2.321-4.985 3.876-.944-.944-.644-5.89-2.116-5.237-1.985.788-4.076 4.613-2.748 6.575-6.144-3.836-7.138-13.571-3.027-19.042 4.212-5.588 11.528-6.46 17.633-8.828 6.631-2.57 12.204-7.96 9.402-15.542-3.076-8.32-10.504-11.108-18.783-9.715-3.161.542-6.281 2.694-9.496 2.188-1.186-.187-3.461-1.814-3.17-.362.083 1.619 1.75 3.107 2.984 3.934 5.037 3.373 11.205 2.029 16.618.896 5.929-1.241 13.047 4.097 9.512 10.528-3.454 6.308-13.446 7.577-19.468 10.178-11.685 5.048-13.292 21.397-2.231 28.175-3.002 1.319-4.366 3.94-8.026 3.372-1.564-.244-4.092-.601-4.481-2.378-.358-1.636 1.132-4.517-.087-3.575-6.49 5.009 2.532 11.375 7.725 11.215-2.642.992-6.716.98-9.326-.103-1.455-.597-2.29-1.908-2.562-3.436-.265-1.483-1.327-1.464-1.495.06-.28 2.361 1.613 5.331 3.181 6.884 2.31 2.257 5.218 2.667 8.309 2.667-2.19.741-4.757 9.049-2.308 8.684.807-.119 1.096-1.427 1.542-1.947.62-.726 1.438-1.271 2.221-1.805 1.98-1.351 4.391-1.691 6.737-1.795 7.366-.313 19.416 7.174 24.543-1.303 3.494 3.842 9.39 4.648 14.281 3.676 2.633-.521 4.592-2.461 7.159-3.018 2.929-.684 5.332 1.323 8.041 1.981 4.388 1.063 10.895.311 12.802-4.414.275-.68.744-2.478-.376-2.804-.561-.159-2.231 1.604-2.903 1.858-2.49.938-5.581-.309-7.561-1.855 5.148.148 11.378-1.82 11.802-7.766.488-5.659-4.625-10.094-6.962-14.851-.867-1.766-2.891-5.415-.682-6.982 1.578-1.121 3.774 2.411 4.762 3.226 1.949 1.823 4.82 3.036 7.482 2.203.97-.3 5.964-4.223 2.932-4.223-.526-.041.207 0 0 0zM16.787 16.081c7.424.206 10.119-4.266 18.137-1.374.461.167 2.855 1.322 1.668 2.042-.758.46-1.908-.596-3.77-.106-1.725.454-3.377 1.265-5.147 1.636-1.259.264-8.565.851-10.888-2.198zm51.537 61.336c-2.354.301-4.06 1.461-6.193 2.374-1.454.623-3.639 1.086-4.963-.086-1.746-.988-.886-2.377-.886-3.87 1.766 2.759 5.191 2.119 7.729 1.052 1.858-.741 3.419-1.115 5.407-.654 1.941.448 3.445 1.666 5.297 2.201-.833.266-4.436-1.268-6.391-1.017zm-.877-8.13c.846 2.928-1.81 6.063-5.439 7.021-1.51.398-4.891-.299-4.305-1.639.426-.856 1.757 1.169 4.676.268 1.289-.399 3.942-3.119 5.068-5.65zm-3.998-49.296c.914-.312 1.823-.64 2.72-.999-2.834 2.428-6.039 4.548-9.312 6.338 1.809-2.455 3.614-4.327 6.592-5.339.311-.106-2.431.827 0 0zm-22.29 21.526c3.625-3.596 7.207-7.438 11.181-10.65 3.893-3.308 8.508-5.716 12.755-8.537 2.283-1.685 4.561-3.435 6.524-5.493 1.339-1.407 2.292-3.108 3.59-4.528 4.167-4.556 6.316 6.947 7.078 9.496.727 2.371 1.749 4.719 2.33 7.121.683 2.82-1.025 4.489-3.332 5.855-2.072 1.219-4.586 1.872-6.536 3.239-1.095.904-2.076 2.126-2.286 3.573.055 1.392 1.422-.025 1.692-.502.342-.739 2.34-3.438 2.31-1.378-.04 2.241-.576 4.492-1.22 6.631-1.505 6.151-4.954 11.584-9.024 16.361.046-6.425-5.946-11.079-11.637-12.51-5.027-1.264-12.873-1.713-17.576 1.069-1.338-3.243 2.049-7.621 4.151-9.747.185-.184-.09.089 0 0zM28.602 61.673c.629.434-.957 2.023.598 3.369.286 1.101-1.443.695-1.971.607-1.757-.766.043-4.17 1.373-3.976.074.051-.05-.008 0 0zm-6.562.442l.476-.503c.291 3.697 2.096 5.997 5.89 5.997-2.777 3.761-8.604-2.338-6.366-5.494.05-.241-.055.077 0 0zM80.214 83.18c1.701.657 3.634 1.185 5.448.666-3.249 1.952-7.72 2.637-11.273 1.111-1.721-.738-3.341-1.677-5.254-1.773-2.296-.116-4.196 1.103-6.186 2.048-3.445 1.64-8.408 2.007-11.938.38-2.774-1.277-6.792-4.982-5.124-8.438.184-.384 1.311-1.165 1.105-1.608-.204-.893-1.522-.104-1.853.232-1.714 1.753-.663 4.036-.477 6.089 0 4.523-5.256 4.902-8.697 4.558-7.495-.75-17.762-6.449-23.685 1.448.087-3.265 4.146-5.91 6.891-6.909 3.188-1.161 6.909-.505 10.062.461 3.002.901 5.306 1.234 8.193-.231 1.426-.725 2.539-1.869 3.192-3.327.226-.563.749-3.051-.42-3.05-.323 0-.146 1.883-1.61 3.737-.841 1.066-2.223 1.604-3.52 1.926-3.334.888-6.482-1.075-9.743-1.438-3.058-.313-6.122.098-9.082.859-3.391.875-8.495 1.19-10.688-2.277 5.139 1.708 9.507.764 14.312-1.294 4.748-2.035 9.241-3.146 14.394-2.567.362.041 2.112-.051 1.007-.944-.805-.651-2.409-.833-3.389-.9-2.78-.187-6.026.777-8.663 1.604-2.277.618-4.651 2.026-7.068 1.685-2.696-.388-5.68-1.048-7.497-3.253 2.146.987 5.056 1.722 7.314.699 2.382-.816 3.781-3.267 6.511-3.079 2.193.494 4.625 1.291 6.705-.028 2.308-1.447 3.82-3.272 3.539-6.035-.298-3.075-.398-5.601 1.966-7.965 1.93-2 4.78-3.217 7.45-3.837 5.317-1.229 11.5-.422 16.285 2.213 4.661 2.566 7.916 8.474 3.967 13.208-2.852 3.44-8.093 5.052-8.507 10.202-.132 2.369 1.316 4.026 3.544 4.755 2.618.953 4.984-.287 7.304-1.408 5.851-2.83 10.05.448 15.485 2.48.878.339-.214-.079 0 0zm1.331-36.19c.902-1.077 2.696-1.527 4.03-1.58 4.265-.156 6.03 5.862 9.489 7.608-4.283 4.71-7.815-3.566-11.249-4.459-1.315-.343-3.44-.176-2.27-1.569z"/><path d="M60.445 61.983c-.285-1.58-2.18-1.806-2.91-.494-.389.7-.441 1.532-.622 2.271-.759.956-1.954 1.752-2.849 1.016-.404-.332-.605-1.189-.813-1.655-.268-.602-.9-1.264-1.519-1.271a.828.828 0 0 0-.456.13c-1.129 1.104-1.063 3.063-.139 4.207.145.16.309.309.483.444a4.636 4.636 0 0 0 1.853.855c1.549.449 3.332.31 4.522-.542 1.477-1.051 2.783-3.114 2.45-4.961zM50.244 52.803c-.358.019-.718.181-.849.542-.195.487 0 1.108.49 1.338.392.162.913.129 1.175-.264.358-.555.164-1.304-.47-1.562a1.051 1.051 0 0 0-.346-.054zM40.882 54.108c-.452-.023-.811.269-.942.694-.13.456.065.979.49 1.175a1.031 1.031 0 0 0 1.403-.588c.164-.488-.131-1.044-.6-1.227a1.15 1.15 0 0 0-.351-.054zM41.859 58.144c-.404-.026-.764.234-.926.563-.131.261-.098.587 0 .848.26.586 1.044.751 1.567.359.326-.292.423-.784.26-1.207-.098-.261-.326-.425-.547-.509a1.087 1.087 0 0 0-.354-.054zM48.583 39.022a1.568 1.568 0 0 0-.745.266c-.206.149-.345.362-.345.639a.852.852 0 0 0 .123.484c.256.422.857.638 1.35.477a.852.852 0 0 0 .266-.149c.303-.25.403-.689.303-1.065a1.034 1.034 0 0 0-.114-.267c-.133-.164-.263-.295-.464-.354a1.09 1.09 0 0 0-.374-.031zM50.748 44.533c-.438.051-.829.247-.992.639-.163.457-.032 1.045.425 1.273.554.261 1.141-.033 1.402-.523.229-.456.131-1.207-.463-1.348a1.081 1.081 0 0 0-.372-.041zM55.538 32.966a.9.9 0 0 0-.289.027.796.796 0 0 0-.599.504 1.324 1.324 0 0 0-.063.284c-.046.487.195.994.686 1.184.259.098.489.132.749 0 .426-.228.522-.718.458-1.143-.032-.359-.262-.62-.583-.781a1.077 1.077 0 0 0-.359-.075zM64.788 28.203c-.476.005-.899.234-1.063.66a.911.911 0 0 0 .163.945c.424.392 1.044.49 1.535.163.26-.195.327-.488.327-.783 0-.358-.198-.816-.601-.926a1.18 1.18 0 0 0-.361-.059zM26.416 15.947c-1.01 0-1.212 1.253-.606 1.756a.834.834 0 0 0 .265.148c.292.118.684.052.947-.148a.843.843 0 0 0 .19-.219c.352-.576.087-1.537-.796-1.537zM25.959 13.793c-1.263 0-1.263 1.958 0 1.958s1.263-1.958 0-1.958zM29.353 14.968c-1.262 0-1.262 1.958 0 1.958 1.263 0 1.263-1.958 0-1.958zM88.111 46.109c-1.265 0-1.265 1.959 0 1.959 1.262 0 1.262-1.959 0-1.959z"/><path d="M86.558 47.288a.899.899 0 0 0-.961.615 1.121 1.121 0 0 0-.06.286c.012.203-.021.399.104.567a.877.877 0 0 0 .173.234.925.925 0 0 0 .587.251c1.26.1 1.416-1.852.157-1.953zM77.688 20.213c-.416 1.435-.393 3.039-.603 4.518-.222 1.567-.475 3.12-.917 4.644-.222.767-.469 1.527-.674 2.299-.091.344-.175.688-.245 1.035-.066.338-.031.929-.24 1.201-.303.395-.312 1.067.351 1.108.67.042 1.066-1.319 1.24-1.808.481-1.359.818-2.798 1.227-4.183.472-1.609.736-3.232.871-4.904.107-1.325.478-2.814.212-4.132-.039-.202-.38-1.451-.752-1.122-.322.281-.399.947-.47 1.344-.316 1.089.005-.042 0 0zM88.698 49.439c-1.264 0-1.264 1.958 0 1.958 1.261 0 1.261-1.958 0-1.958z"/><path d="M90.098 48.323c-1.179.454-.474 2.283.705 1.828 1.176-.455.472-2.282-.705-1.828zM28.766 13.009c-1.263 0-1.263 1.958 0 1.958 1.262.001 1.262-1.958 0-1.958zM91.049 51.202c-1.264 0-1.264 1.958 0 1.958 1.262 0 1.262-1.958 0-1.958zM23.478 15.947c-1.263 0-1.263 1.958 0 1.958 1.262.001 1.262-1.958 0-1.958z"/></svg>