<svg xmlns="http://www.w3.org/2000/svg" width="100" height="100" viewBox="0 0 100 100"><path d="M71.15 55.636c8.644-9.455 13.473-18.541 16.13-26.462 0 .024 0 .024.008.04 0 0 1.069-2.789 1.908-7.179.062-.292.104-.559.159-.854.063-.368.128-.747.184-1.133 1.029-6.393.687-11.445.239-14.422.143-.135.295-.303.438-.495.527-.663.752-1.349.52-1.532l-.28-.212L91 1l-2.587.818-.343-.256c-.239-.175-.846.224-1.364.886-.104.143-.2.28-.28.415 0 0-9.473.295-20.432 7.255h.017c-15.324 9.45-22.571 24.31-22.571 24.31-27.639-3.71-33.8 22.021-33.8 22.021 53.873-3.16 46.729 37.543 46.729 37.543C79.945 83.649 71.15 55.636 71.15 55.636zm-1.779-14.112c-2.443 2.69-6.561 3.396-9.889 1.477-3.815-2.195-5.148-6.991-2.978-10.71.264-.463.575-.874.918-1.253 2.434-2.69 6.552-3.393 9.888-1.477 3.808 2.187 5.149 6.987 2.979 10.711a7.937 7.937 0 0 1-.918 1.252z"/><path d="M30.949 97.333c13.296-4.829 18.133-22.384 18.133-22.384-14.126 6.329-18.133 22.384-18.133 22.384zM16.806 98.828c17.623-6.504 23.952-30.4 23.952-30.4-18.707 8.532-23.952 30.4-23.952 30.4zM14.292 84.28c13.297-4.821 18.134-22.372 18.134-22.372C18.307 68.226 14.292 84.28 14.292 84.28z"/></svg>