<svg xmlns="http://www.w3.org/2000/svg" width="100" height="100" viewBox="0 0 100 100"><path d="M92.842 20.437L90.61 47.905l-24.421 5.406-13.6-10.061-.001-26.229 14.451 7.408 25.803-3.992zM65.969 60.826l-13.38-10.695.002 7.047 6.223 5.354-28.008 6.685-10.432-12.403 1.7 24.16 10.019 14.519 26.379-7.8.118-8.639 6.649 6.636 22.849-6.757 1.938-23.848-24.057 5.741zM48.212 46.428l-29.188 3.175-11.678-8.25-.188-31.742L39.411 5l7.175 13.083 1.626 28.345zM9.452 11.587l.162 27.202c4.036-.471 25.573-2.985 28.996-3.383L37.253 7.613c-3.949.565-24.61 3.52-27.801 3.974z"/></svg>