<svg xmlns="http://www.w3.org/2000/svg" xmlns:xlink="http://www.w3.org/1999/xlink" version="1.0" id="Layer_1" x="0px" y="0px" width="50px" height="50px" viewBox="0 0 50 50" enable-background="new 0 0 50 50" xml:space="preserve">
<g>
	<path fill="#000000" d="M25.004,49.057c-5.756,0-8.862-12.199-8.862-23.676s3.105-23.675,8.862-23.675   c5.755,0,8.861,12.198,8.861,23.675S30.76,49.057,25.004,49.057z M25.004,3.706c-3.246,0-6.862,8.901-6.862,21.675   c0,12.774,3.616,21.676,6.862,21.676c3.244,0,6.861-8.902,6.861-21.676C31.865,12.607,28.248,3.706,25.004,3.706z"/>
	<path fill="#000000" d="M39.83,39.607c-4.951,0-12.15-2.449-19.257-6.553C10.634,27.316,1.623,18.527,4.5,13.543   c0.629-1.09,2.125-2.389,5.676-2.389c4.952,0,12.151,2.45,19.257,6.553c5.34,3.083,9.953,6.713,12.99,10.223   c3.314,3.828,4.381,7.041,3.082,9.289C44.877,38.309,43.382,39.607,39.83,39.607z M10.176,13.154c-2.026,0-3.427,0.493-3.944,1.389   c-1.623,2.811,4.278,10.393,15.341,16.779c6.714,3.877,13.71,6.285,18.257,6.285c2.026,0,3.428-0.493,3.943-1.389   c0.798-1.381-0.271-3.99-2.861-6.98c-2.896-3.345-7.328-6.825-12.479-9.799C21.72,15.563,14.724,13.154,10.176,13.154z"/>
	<path fill="#000000" d="M10.177,39.607c-3.552,0-5.047-1.299-5.677-2.389c-1.298-2.248-0.232-5.461,3.083-9.289   c3.038-3.51,7.651-7.14,12.99-10.223c7.106-4.103,14.306-6.553,19.257-6.553c3.552,0,5.047,1.299,5.676,2.389   c1.299,2.248,0.232,5.46-3.082,9.289c-3.037,3.51-7.65,7.14-12.99,10.223C22.327,37.158,15.128,39.607,10.177,39.607z    M39.83,13.154c-4.547,0-11.543,2.408-18.257,6.285c-5.151,2.974-9.583,6.454-12.479,9.799c-2.589,2.991-3.659,5.6-2.862,6.98   c0.517,0.896,1.918,1.389,3.944,1.389c4.547,0,11.543-2.408,18.257-6.285c5.151-2.975,9.583-6.454,12.479-9.799   c2.59-2.991,3.659-5.6,2.862-6.98C43.258,13.647,41.857,13.154,39.83,13.154z"/>
	<circle fill="#000000" cx="24.938" cy="25.271" r="4.996"/>
</g>
</svg>