<svg xmlns="http://www.w3.org/2000/svg" xmlns:xlink="http://www.w3.org/1999/xlink" version="1.1" id="Layer_1" x="0px" y="0px" width="100px" height="100px" viewBox="0 0 100 100" enable-background="new 0 0 100 100" xml:space="preserve">
<path d="M92.842,20.437L90.61,47.905l-24.421,5.406l-13.6-10.061l-0.001-26.229l14.451,7.408L92.842,20.437z M65.969,60.826  L52.589,50.131l0.002,7.047l6.223,5.354l-28.008,6.685L20.374,56.814l1.7,24.16l10.019,14.519l26.379-7.8l0.118-8.639l6.649,6.636  l22.849-6.757l1.938-23.848L65.969,60.826z M48.212,46.428l-29.188,3.175l-11.678-8.25L7.158,9.611L39.411,5l7.175,13.083  L48.212,46.428z M9.452,11.587c0.02,3.199,0.138,23.184,0.162,27.202c4.036-0.471,25.573-2.985,28.996-3.383  c-0.167-3.415-1.164-23.833-1.357-27.793C33.304,8.178,12.643,11.133,9.452,11.587z"/>
</svg>