<svg xmlns="http://www.w3.org/2000/svg" xmlns:xlink="http://www.w3.org/1999/xlink" version="1.1" x="0px" y="0px" width="100px" height="100px" viewBox="0 0 100 100" enable-background="new 0 0 100 100" xml:space="preserve">
<g id="Captions">
</g>
<g id="Your_Icon">
	<path d="M97.035,51.533c-2.617-0.202-3.956-2.629-5.297-4.547c-1.491-1.908-3.537-3.361-6.032-3.466   c-6.109-0.256-7.966,6.15-6.693,11.002c1.487,5.525,6.409,9.185,8.02,14.482c1.464,4.818-2.184,8.835-7.051,8.835   c1.628-1.222,1.352-3.841,0.273-5.315c-0.357-0.488-1.169-1.249-1.866-1.009c-0.943,0.325,0.547,2.205,0.674,2.644   c0.757,2.699-2.923,3.103-4.64,2.384c-2.059-0.861-4-1.784-6.127-2.491c0.961-1.438,1.371-3.378,1.096-5.087   c-0.086-0.688-1.076-3.973-2.351-3.207c-0.59,0.335-1.186,3.306-1.599,4.062c-0.744,1.36-1.718,2.536-3.03,3.382   c-0.859,0.666-2.811,0.712-3.171-0.579c-0.293-0.959,1.982-1.925,2.544-2.307c1.944-1.317,3.617-3.651,5.146-5.456   c5.093-5.759,9.188-12.93,10.84-20.481c0.592-2.711,0.028-6.124,2.878-7.344c3.48-1.697,6.678-4.074,5.589-8.384   c-0.828-3.27-2.124-6.468-3.095-9.706c-0.804-2.675-1.272-7.047-3.444-9.044c-2.629-2.418-5.607,0.584-7.214,2.561   c-2.591,3.188-6.273,4.284-9.969,5.687c-3.761,1.428-5.984,3.425-7.9,6.949c-1.34,2.909-4.287,4.826-6.515,6.993   c-4.406,4.258-13.314,10.266-13.847,17.028c-0.17,1.478,0.144,2.994-0.459,4.406c-0.529,1.251-1.644,2.054-2.276,3.235   c-0.599,1.12-1.16,2.85-1.16,4.146c-0.015,1.192,0.498,2.402,0.187,3.578c-1.923-1.434,0.065-2.636-0.386-4.146   c-1.263-1.681-5.052,2.321-4.985,3.876c-0.944-0.944-0.644-5.89-2.116-5.237c-1.985,0.788-4.076,4.613-2.748,6.575   c-6.144-3.836-7.138-13.571-3.027-19.042c4.212-5.588,11.528-6.46,17.633-8.828c6.631-2.57,12.204-7.96,9.402-15.542   c-3.076-8.32-10.504-11.108-18.783-9.715c-3.161,0.542-6.281,2.694-9.496,2.188c-1.186-0.187-3.461-1.814-3.17-0.362   c0.083,1.619,1.75,3.107,2.984,3.934c5.037,3.373,11.205,2.029,16.618,0.896c5.929-1.241,13.047,4.097,9.512,10.528   c-3.454,6.308-13.446,7.577-19.468,10.178c-11.685,5.048-13.292,21.397-2.231,28.175c-3.002,1.319-4.366,3.94-8.026,3.372   c-1.564-0.244-4.092-0.601-4.481-2.378c-0.358-1.636,1.132-4.517-0.087-3.575c-6.49,5.009,2.532,11.375,7.725,11.215   c-2.642,0.992-6.716,0.98-9.326-0.103c-1.455-0.597-2.29-1.908-2.562-3.436c-0.265-1.483-1.327-1.464-1.495,0.06   c-0.28,2.361,1.613,5.331,3.181,6.884c2.31,2.257,5.218,2.667,8.309,2.667c-2.19,0.741-4.757,9.049-2.308,8.684   c0.807-0.119,1.096-1.427,1.542-1.947c0.62-0.726,1.438-1.271,2.221-1.805c1.98-1.351,4.391-1.691,6.737-1.795   c7.366-0.313,19.416,7.174,24.543-1.303c3.494,3.842,9.39,4.648,14.281,3.676c2.633-0.521,4.592-2.461,7.159-3.018   c2.929-0.684,5.332,1.323,8.041,1.981c4.388,1.063,10.895,0.311,12.802-4.414c0.275-0.68,0.744-2.478-0.376-2.804   c-0.561-0.159-2.231,1.604-2.903,1.858c-2.49,0.938-5.581-0.309-7.561-1.855c5.148,0.148,11.378-1.82,11.802-7.766   c0.488-5.659-4.625-10.094-6.962-14.851c-0.867-1.766-2.891-5.415-0.682-6.982c1.578-1.121,3.774,2.411,4.762,3.226   c1.949,1.823,4.82,3.036,7.482,2.203C95.073,55.456,100.067,51.533,97.035,51.533C96.509,51.492,97.242,51.533,97.035,51.533z    M16.787,16.081c7.424,0.206,10.119-4.266,18.137-1.374c0.461,0.167,2.855,1.322,1.668,2.042c-0.758,0.46-1.908-0.596-3.77-0.106   c-1.725,0.454-3.377,1.265-5.147,1.636C26.416,18.543,19.11,19.13,16.787,16.081z M68.324,77.417   c-2.354,0.301-4.06,1.461-6.193,2.374c-1.454,0.623-3.639,1.086-4.963-0.086c-1.746-0.988-0.886-2.377-0.886-3.87   c1.766,2.759,5.191,2.119,7.729,1.052c1.858-0.741,3.419-1.115,5.407-0.654c1.941,0.448,3.445,1.666,5.297,2.201   C73.882,78.7,70.279,77.166,68.324,77.417z M67.447,69.287c0.846,2.928-1.81,6.063-5.439,7.021   c-1.51,0.398-4.891-0.299-4.305-1.639c0.426-0.856,1.757,1.169,4.676,0.268C63.668,74.538,66.321,71.818,67.447,69.287z    M63.449,19.991c0.914-0.312,1.823-0.64,2.72-0.999c-2.834,2.428-6.039,4.548-9.312,6.338   C58.666,22.875,60.471,21.003,63.449,19.991C63.76,19.885,61.018,20.818,63.449,19.991z M41.159,41.517   c3.625-3.596,7.207-7.438,11.181-10.65c3.893-3.308,8.508-5.716,12.755-8.537c2.283-1.685,4.561-3.435,6.524-5.493   c1.339-1.407,2.292-3.108,3.59-4.528c4.167-4.556,6.316,6.947,7.078,9.496c0.727,2.371,1.749,4.719,2.33,7.121   c0.683,2.82-1.025,4.489-3.332,5.855c-2.072,1.219-4.586,1.872-6.536,3.239c-1.095,0.904-2.076,2.126-2.286,3.573   c0.055,1.392,1.422-0.025,1.692-0.502c0.342-0.739,2.34-3.438,2.31-1.378c-0.04,2.241-0.576,4.492-1.22,6.631   c-1.505,6.151-4.954,11.584-9.024,16.361c0.046-6.425-5.946-11.079-11.637-12.51c-5.027-1.264-12.873-1.713-17.576,1.069   C35.67,48.021,39.057,43.643,41.159,41.517C41.344,41.333,41.069,41.606,41.159,41.517z M28.602,61.673   c0.629,0.434-0.957,2.023,0.598,3.369c0.286,1.101-1.443,0.695-1.971,0.607C25.472,64.883,27.272,61.479,28.602,61.673   C28.676,61.724,28.552,61.665,28.602,61.673z M22.04,62.115c0.158-0.167,0.317-0.334,0.476-0.503   c0.291,3.697,2.096,5.997,5.89,5.997C25.629,71.37,19.802,65.271,22.04,62.115C22.09,61.874,21.985,62.192,22.04,62.115z    M80.214,83.18c1.701,0.657,3.634,1.185,5.448,0.666c-3.249,1.952-7.72,2.637-11.273,1.111c-1.721-0.738-3.341-1.677-5.254-1.773   c-2.296-0.116-4.196,1.103-6.186,2.048c-3.445,1.64-8.408,2.007-11.938,0.38c-2.774-1.277-6.792-4.982-5.124-8.438   c0.184-0.384,1.311-1.165,1.105-1.608c-0.204-0.893-1.522-0.104-1.853,0.232c-1.714,1.753-0.663,4.036-0.477,6.089   c0,4.523-5.256,4.902-8.697,4.558c-7.495-0.75-17.762-6.449-23.685,1.448c0.087-3.265,4.146-5.91,6.891-6.909   c3.188-1.161,6.909-0.505,10.062,0.461c3.002,0.901,5.306,1.234,8.193-0.231c1.426-0.725,2.539-1.869,3.192-3.327   c0.226-0.563,0.749-3.051-0.42-3.05c-0.323,0-0.146,1.883-1.61,3.737c-0.841,1.066-2.223,1.604-3.52,1.926   c-3.334,0.888-6.482-1.075-9.743-1.438c-3.058-0.313-6.122,0.098-9.082,0.859c-3.391,0.875-8.495,1.19-10.688-2.277   c5.139,1.708,9.507,0.764,14.312-1.294c4.748-2.035,9.241-3.146,14.394-2.567c0.362,0.041,2.112-0.051,1.007-0.944   c-0.805-0.651-2.409-0.833-3.389-0.9c-2.78-0.187-6.026,0.777-8.663,1.604c-2.277,0.618-4.651,2.026-7.068,1.685   c-2.696-0.388-5.68-1.048-7.497-3.253c2.146,0.987,5.056,1.722,7.314,0.699c2.382-0.816,3.781-3.267,6.511-3.079   c2.193,0.494,4.625,1.291,6.705-0.028c2.308-1.447,3.82-3.272,3.539-6.035c-0.298-3.075-0.398-5.601,1.966-7.965   c1.93-2,4.78-3.217,7.45-3.837c5.317-1.229,11.5-0.422,16.285,2.213c4.661,2.566,7.916,8.474,3.967,13.208   c-2.852,3.44-8.093,5.052-8.507,10.202c-0.132,2.369,1.316,4.026,3.544,4.755c2.618,0.953,4.984-0.287,7.304-1.408   C70.58,77.87,74.779,81.148,80.214,83.18C81.092,83.519,80,83.101,80.214,83.18z M81.545,46.99c0.902-1.077,2.696-1.527,4.03-1.58   c4.265-0.156,6.03,5.862,9.489,7.608c-4.283,4.71-7.815-3.566-11.249-4.459C82.5,48.216,80.375,48.383,81.545,46.99z"/>
	<path d="M60.445,61.983c-0.285-1.58-2.18-1.806-2.91-0.494c-0.389,0.7-0.441,1.532-0.622,2.271   c-0.759,0.956-1.954,1.752-2.849,1.016c-0.404-0.332-0.605-1.189-0.813-1.655c-0.268-0.602-0.9-1.264-1.519-1.271   c-0.153-0.002-0.31,0.038-0.456,0.13c-1.129,1.104-1.063,3.063-0.139,4.207c0.145,0.16,0.309,0.309,0.483,0.444   c0.524,0.409,1.169,0.706,1.853,0.855c1.549,0.449,3.332,0.31,4.522-0.542C59.472,65.893,60.778,63.83,60.445,61.983z"/>
	<path d="M50.244,52.803c-0.358,0.019-0.718,0.181-0.849,0.542c-0.195,0.487,0,1.108,0.49,1.338   c0.392,0.162,0.913,0.129,1.175-0.264c0.358-0.555,0.164-1.304-0.47-1.562C50.486,52.821,50.371,52.803,50.244,52.803z"/>
	<path d="M40.882,54.108c-0.452-0.023-0.811,0.269-0.942,0.694c-0.13,0.456,0.065,0.979,0.49,1.175   c0.555,0.262,1.207-0.032,1.403-0.588c0.164-0.488-0.131-1.044-0.6-1.227C41.13,54.129,41.012,54.108,40.882,54.108z"/>
	<path d="M41.859,58.144c-0.404-0.026-0.764,0.234-0.926,0.563c-0.131,0.261-0.098,0.587,0,0.848   c0.26,0.586,1.044,0.751,1.567,0.359c0.326-0.292,0.423-0.784,0.26-1.207c-0.098-0.261-0.326-0.425-0.547-0.509   C42.108,58.162,41.99,58.144,41.859,58.144z"/>
	<path d="M48.583,39.022c-0.267,0.029-0.541,0.116-0.745,0.266c-0.206,0.149-0.345,0.362-0.345,0.639   c-0.008,0.18,0.038,0.343,0.123,0.484c0.256,0.422,0.857,0.638,1.35,0.477c0.102-0.035,0.189-0.086,0.266-0.149   c0.303-0.25,0.403-0.689,0.303-1.065c-0.026-0.094-0.063-0.184-0.114-0.267c-0.133-0.164-0.263-0.295-0.464-0.354   C48.852,39.023,48.728,39.012,48.583,39.022z"/>
	<path d="M50.748,44.533c-0.438,0.051-0.829,0.247-0.992,0.639c-0.163,0.457-0.032,1.045,0.425,1.273   c0.554,0.261,1.141-0.033,1.402-0.523c0.229-0.456,0.131-1.207-0.463-1.348C51.013,44.542,50.888,44.525,50.748,44.533z"/>
	<path d="M55.538,32.966c-0.1-0.007-0.195,0.003-0.289,0.027c-0.271,0.047-0.5,0.243-0.599,0.504   c-0.032,0.092-0.052,0.188-0.063,0.284c-0.046,0.487,0.195,0.994,0.686,1.184c0.259,0.098,0.489,0.132,0.749,0   c0.426-0.228,0.522-0.718,0.458-1.143c-0.032-0.359-0.262-0.62-0.583-0.781C55.789,32.998,55.669,32.971,55.538,32.966z"/>
	<path d="M64.788,28.203c-0.476,0.005-0.899,0.234-1.063,0.66c-0.131,0.325-0.064,0.684,0.163,0.945   c0.424,0.392,1.044,0.49,1.535,0.163c0.26-0.195,0.327-0.488,0.327-0.783c0-0.358-0.198-0.816-0.601-0.926   C65.045,28.226,64.925,28.206,64.788,28.203z"/>
	<path d="M26.416,15.947c-1.01,0-1.212,1.253-0.606,1.756c0.076,0.063,0.163,0.113,0.265,0.148c0.292,0.118,0.684,0.052,0.947-0.148   c0.077-0.062,0.14-0.137,0.19-0.219C27.564,16.908,27.299,15.947,26.416,15.947z"/>
	<path d="M25.959,13.793c-1.263,0-1.263,1.958,0,1.958C27.222,15.751,27.222,13.793,25.959,13.793z"/>
	<path d="M29.353,14.968c-1.262,0-1.262,1.958,0,1.958C30.616,16.926,30.616,14.968,29.353,14.968z"/>
	<path d="M88.111,46.109c-1.265,0-1.265,1.959,0,1.959C89.373,48.068,89.373,46.109,88.111,46.109z"/>
	<path d="M86.558,47.288c-0.505-0.039-0.83,0.249-0.961,0.615c-0.033,0.092-0.052,0.189-0.06,0.286   c0.012,0.203-0.021,0.399,0.104,0.567c0.044,0.086,0.102,0.166,0.173,0.234c0.141,0.137,0.336,0.231,0.587,0.251   C87.661,49.341,87.817,47.389,86.558,47.288z"/>
	<path d="M77.688,20.213c-0.416,1.435-0.393,3.039-0.603,4.518c-0.222,1.567-0.475,3.12-0.917,4.644   c-0.222,0.767-0.469,1.527-0.674,2.299c-0.091,0.344-0.175,0.688-0.245,1.035c-0.066,0.338-0.031,0.929-0.24,1.201   c-0.303,0.395-0.312,1.067,0.351,1.108c0.67,0.042,1.066-1.319,1.24-1.808c0.481-1.359,0.818-2.798,1.227-4.183   c0.472-1.609,0.736-3.232,0.871-4.904c0.107-1.325,0.478-2.814,0.212-4.132c-0.039-0.202-0.38-1.451-0.752-1.122   C77.836,19.15,77.759,19.816,77.688,20.213C77.372,21.302,77.693,20.171,77.688,20.213z"/>
	<path d="M88.698,49.439c-1.264,0-1.264,1.958,0,1.958C89.959,51.397,89.959,49.439,88.698,49.439z"/>
	<path d="M90.098,48.323c-1.179,0.454-0.474,2.283,0.705,1.828C91.979,49.696,91.275,47.869,90.098,48.323z"/>
	<path d="M28.766,13.009c-1.263,0-1.263,1.958,0,1.958C30.028,14.968,30.028,13.009,28.766,13.009z"/>
	<path d="M91.049,51.202c-1.264,0-1.264,1.958,0,1.958C92.311,53.16,92.311,51.202,91.049,51.202z"/>
	<path d="M23.478,15.947c-1.263,0-1.263,1.958,0,1.958C24.74,17.906,24.74,15.947,23.478,15.947z"/>
</g>
</svg>