<svg xmlns="http://www.w3.org/2000/svg" xmlns:xlink="http://www.w3.org/1999/xlink" version="1.1" x="0px" y="0px" width="100px" height="100px" viewBox="0 0 100 100" enable-background="new 0 0 100 100" xml:space="preserve">
<g id="Captions">
</g>
<g id="Your_Icon">
	<g>
		<path fill="#000000" d="M71.15,55.636c8.644-9.455,13.473-18.541,16.13-26.462c0,0.024,0,0.024,0.008,0.04    c0,0,1.069-2.789,1.908-7.179c0.062-0.292,0.104-0.559,0.159-0.854c0.063-0.368,0.128-0.747,0.184-1.133    c1.029-6.393,0.687-11.445,0.239-14.422c0.143-0.135,0.295-0.303,0.438-0.495c0.527-0.663,0.752-1.349,0.52-1.532l-0.28-0.212    L91,1l-2.587,0.818L88.07,1.562c-0.239-0.175-0.846,0.224-1.364,0.886c-0.104,0.143-0.2,0.28-0.28,0.415    c0,0-9.473,0.295-20.432,7.255h0.017c-15.324,9.45-22.571,24.31-22.571,24.31c-27.639-3.71-33.8,22.021-33.8,22.021    c53.873-3.16,46.729,37.543,46.729,37.543C79.945,83.649,71.15,55.636,71.15,55.636z M69.371,41.524    c-2.443,2.69-6.561,3.396-9.889,1.477c-3.815-2.195-5.148-6.991-2.978-10.71c0.264-0.463,0.575-0.874,0.918-1.253    c2.434-2.69,6.552-3.393,9.888-1.477c3.808,2.187,5.149,6.987,2.979,10.711C70.017,40.734,69.705,41.149,69.371,41.524z"/>
		<path fill="#000000" d="M30.949,97.333c13.296-4.829,18.133-22.384,18.133-22.384C34.956,81.278,30.949,97.333,30.949,97.333z"/>
		<path fill="#000000" d="M16.806,98.828c17.623-6.504,23.952-30.4,23.952-30.4C22.051,76.96,16.806,98.828,16.806,98.828z"/>
		<path fill="#000000" d="M14.292,84.28c13.297-4.821,18.134-22.372,18.134-22.372C18.307,68.226,14.292,84.28,14.292,84.28z"/>
	</g>
</g>
</svg>